<?xml version="1.0" encoding="UTF-8" standalone="no"?>
<!DOCTYPE svg PUBLIC "-//W3C//DTD SVG 1.1//EN"
 "http://www.w3.org/Graphics/SVG/1.1/DTD/svg11.dtd">
<!-- Generated by graphviz version 2.38.0 (20140413.2041)
 -->
<!-- Title: source tree Pages: 1 -->
<svg width="3523pt" height="3523pt"
 viewBox="0.00 0.00 3523.00 3523.00" xmlns="http://www.w3.org/2000/svg" xmlns:xlink="http://www.w3.org/1999/xlink">
<g id="graph0" class="graph" transform="scale(0.997734 0.997734) rotate(0) translate(4 3527)">
<title>source tree</title>
<polygon fill="white" stroke="none" points="-4,4 -4,-3527 3527,-3527 3527,4 -4,4"/>
<!-- upmf.h -->
<g id="node1" class="node"><title>upmf.h</title>
<ellipse fill="#a5fffa" stroke="black" cx="2157.8" cy="-2110.98" rx="36.2938" ry="18"/>
<text text-anchor="middle" x="2157.8" y="-2107.28" font-family="Times,serif" font-size="14.00">upmf.h</text>
</g>
<!-- uemf.h -->
<g id="node3" class="node"><title>uemf.h</title>
<ellipse fill="#a5fffa" stroke="black" cx="2494.81" cy="-2419.02" rx="36.2938" ry="18"/>
<text text-anchor="middle" x="2494.81" y="-2415.32" font-family="Times,serif" font-size="14.00">uemf.h</text>
</g>
<!-- upmf.h&#45;&gt;uemf.h -->
<g id="edge38" class="edge"><title>upmf.h&#45;&gt;uemf.h</title>
<path fill="none" stroke="black" d="M2175.45,-2127.11C2231.3,-2178.16 2404.35,-2336.33 2469.58,-2395.96"/>
<polygon fill="black" stroke="black" points="2467.6,-2398.89 2477.34,-2403.05 2472.32,-2393.72 2467.6,-2398.89"/>
</g>
<!-- pmf2svg.h -->
<g id="node2" class="node"><title>pmf2svg.h</title>
<ellipse fill="#a5fffa" stroke="black" cx="1954.55" cy="-1651.38" rx="48.9926" ry="18"/>
<text text-anchor="middle" x="1954.55" y="-1647.68" font-family="Times,serif" font-size="14.00">pmf2svg.h</text>
</g>
<!-- pmf2svg.h&#45;&gt;upmf.h -->
<g id="edge59" class="edge"><title>pmf2svg.h&#45;&gt;upmf.h</title>
<path fill="none" stroke="black" d="M1962.52,-1669.39C1993.8,-1740.12 2108.28,-1999 2145.8,-2083.85"/>
<polygon fill="black" stroke="black" points="2142.64,-2085.36 2149.89,-2093.09 2149.05,-2082.53 2142.64,-2085.36"/>
</g>
<!-- uemf_utf.h -->
<g id="node5" class="node"><title>uemf_utf.h</title>
<ellipse fill="#a5fffa" stroke="black" cx="3093.41" cy="-1833.7" rx="50.0912" ry="18"/>
<text text-anchor="middle" x="3093.41" y="-1830" font-family="Times,serif" font-size="14.00">uemf_utf.h</text>
</g>
<!-- uemf.h&#45;&gt;uemf_utf.h -->
<g id="edge41" class="edge"><title>uemf.h&#45;&gt;uemf_utf.h</title>
<path fill="none" stroke="black" d="M2511.45,-2402.75C2595,-2321.06 2968.78,-1955.57 3068.75,-1857.81"/>
<polygon fill="black" stroke="black" points="3071.3,-1860.22 3076,-1850.73 3066.4,-1855.22 3071.3,-1860.22"/>
</g>
<!-- uemf_endian.h -->
<g id="node6" class="node"><title>uemf_endian.h</title>
<ellipse fill="#a5fffa" stroke="black" cx="3036.3" cy="-2189.21" rx="63.8893" ry="18"/>
<text text-anchor="middle" x="3036.3" y="-2185.51" font-family="Times,serif" font-size="14.00">uemf_endian.h</text>
</g>
<!-- uemf.h&#45;&gt;uemf_endian.h -->
<g id="edge7" class="edge"><title>uemf.h&#45;&gt;uemf_endian.h</title>
<path fill="none" stroke="black" d="M2522.79,-2407.15C2610.97,-2369.72 2883.71,-2253.97 2991.66,-2208.16"/>
<polygon fill="black" stroke="black" points="2993.14,-2211.33 3000.97,-2204.2 2990.4,-2204.89 2993.14,-2211.33"/>
</g>
<!-- emf2svg_img_utils.h -->
<g id="node4" class="node"><title>emf2svg_img_utils.h</title>
<ellipse fill="#a5fffa" stroke="black" cx="2924.95" cy="-2517.75" rx="86.3847" ry="18"/>
<text text-anchor="middle" x="2924.95" y="-2514.05" font-family="Times,serif" font-size="14.00">emf2svg_img_utils.h</text>
</g>
<!-- emf2svg_img_utils.h&#45;&gt;uemf.h -->
<g id="edge66" class="edge"><title>emf2svg_img_utils.h&#45;&gt;uemf.h</title>
<path fill="none" stroke="black" d="M2866.5,-2504.33C2778.89,-2484.22 2615.57,-2446.74 2537.94,-2428.92"/>
<polygon fill="black" stroke="black" points="2538.55,-2425.47 2528.02,-2426.64 2536.98,-2432.29 2538.55,-2425.47"/>
</g>
<!-- uemf_utf.h&#45;&gt;uemf_endian.h -->
<g id="edge45" class="edge"><title>uemf_utf.h&#45;&gt;uemf_endian.h</title>
<path fill="none" stroke="black" d="M3090.5,-1851.82C3081.2,-1909.71 3052.16,-2090.5 3040.86,-2160.82"/>
<polygon fill="black" stroke="black" points="3037.34,-2160.7 3039.21,-2171.13 3044.25,-2161.81 3037.34,-2160.7"/>
</g>
<!-- emf2svg_private.h -->
<g id="node7" class="node"><title>emf2svg_private.h</title>
<ellipse fill="#a5fffa" stroke="black" cx="1357.2" cy="-974.507" rx="77.1866" ry="18"/>
<text text-anchor="middle" x="1357.2" y="-970.807" font-family="Times,serif" font-size="14.00">emf2svg_private.h</text>
</g>
<!-- emf2svg_private.h&#45;&gt;uemf.h -->
<g id="edge43" class="edge"><title>emf2svg_private.h&#45;&gt;uemf.h</title>
<path fill="none" stroke="black" d="M1371.17,-992.249C1490.36,-1143.59 2335.14,-2216.27 2475.17,-2394.08"/>
<polygon fill="black" stroke="black" points="2472.54,-2396.4 2481.48,-2402.09 2478.04,-2392.06 2472.54,-2396.4"/>
</g>
<!-- memstream.h -->
<g id="node8" class="node"><title>memstream.h</title>
<ellipse fill="#a5fffa" stroke="black" cx="1240" cy="-2924.53" rx="59.5901" ry="18"/>
<text text-anchor="middle" x="1240" y="-2920.83" font-family="Times,serif" font-size="14.00">memstream.h</text>
</g>
<!-- emf2svg_private.h&#45;&gt;memstream.h -->
<g id="edge26" class="edge"><title>emf2svg_private.h&#45;&gt;memstream.h</title>
<path fill="none" stroke="black" d="M1356.12,-992.566C1345.19,-1174.37 1255.16,-2672.21 1241.68,-2896.47"/>
<polygon fill="black" stroke="black" points="1238.19,-2896.26 1241.08,-2906.46 1245.17,-2896.68 1238.19,-2896.26"/>
</g>
<!-- emf2svg_print.h -->
<g id="node9" class="node"><title>emf2svg_print.h</title>
<ellipse fill="#a5fffa" stroke="black" cx="2601.49" cy="-1073.79" rx="69.5877" ry="18"/>
<text text-anchor="middle" x="2601.49" y="-1070.09" font-family="Times,serif" font-size="14.00">emf2svg_print.h</text>
</g>
<!-- emf2svg_print.h&#45;&gt;uemf.h -->
<g id="edge12" class="edge"><title>emf2svg_print.h&#45;&gt;uemf.h</title>
<path fill="none" stroke="black" d="M2600.06,-1091.79C2588.58,-1236.62 2511.3,-2211.1 2497.07,-2390.62"/>
<polygon fill="black" stroke="black" points="2493.58,-2390.37 2496.27,-2400.61 2500.55,-2390.92 2493.58,-2390.37"/>
</g>
<!-- emf2svg_print.h&#45;&gt;memstream.h -->
<g id="edge56" class="edge"><title>emf2svg_print.h&#45;&gt;memstream.h</title>
<path fill="none" stroke="black" d="M2588.45,-1091.52C2459.47,-1266.84 1413.84,-2688.22 1259.1,-2898.55"/>
<polygon fill="black" stroke="black" points="1256.1,-2896.73 1252.99,-2906.86 1261.74,-2900.88 1256.1,-2896.73"/>
</g>
<!-- emf2svg.h -->
<g id="node10" class="node"><title>emf2svg.h</title>
<ellipse fill="#a5fffa" stroke="black" cx="426.469" cy="-1651.38" rx="48.1917" ry="18"/>
<text text-anchor="middle" x="426.469" y="-1647.68" font-family="Times,serif" font-size="14.00">emf2svg.h</text>
</g>
<!-- pmf2svg_print.h -->
<g id="node11" class="node"><title>pmf2svg_print.h</title>
<ellipse fill="#a5fffa" stroke="black" cx="1869.01" cy="-2730.16" rx="69.5877" ry="18"/>
<text text-anchor="middle" x="1869.01" y="-2726.46" font-family="Times,serif" font-size="14.00">pmf2svg_print.h</text>
</g>
<!-- pmf2svg_print.h&#45;&gt;upmf.h -->
<g id="edge11" class="edge"><title>pmf2svg_print.h&#45;&gt;upmf.h</title>
<path fill="none" stroke="black" d="M1877.5,-2711.97C1918.52,-2624.02 2096.28,-2242.89 2145.26,-2137.87"/>
<polygon fill="black" stroke="black" points="2148.54,-2139.13 2149.59,-2128.58 2142.19,-2136.17 2148.54,-2139.13"/>
</g>
<!-- example.c -->
<g id="node12" class="node"><title>example.c</title>
<polygon fill="#f6c9bb" stroke="black" points="92.9581,-1973.25 19.9581,-1973.25 19.9581,-1937.25 92.9581,-1937.25 92.9581,-1973.25"/>
<text text-anchor="middle" x="56.4581" y="-1951.55" font-family="Times,serif" font-size="14.00">example.c</text>
</g>
<!-- example.c&#45;&gt;emf2svg.h -->
<g id="edge61" class="edge"><title>example.c&#45;&gt;emf2svg.h</title>
<path fill="none" stroke="black" d="M78.4959,-1937.15C142.333,-1884.72 327.338,-1732.79 398.302,-1674.51"/>
<polygon fill="black" stroke="black" points="400.868,-1676.93 406.375,-1667.88 396.425,-1671.52 400.868,-1676.93"/>
</g>
<!-- test.c -->
<g id="node13" class="node"><title>test.c</title>
<polygon fill="#f6c9bb" stroke="black" points="1168.56,-3507.81 1114.56,-3507.81 1114.56,-3471.81 1168.56,-3471.81 1168.56,-3507.81"/>
<text text-anchor="middle" x="1141.56" y="-3486.11" font-family="Times,serif" font-size="14.00">test.c</text>
</g>
<!-- test.c&#45;&gt;memstream.h -->
<g id="edge44" class="edge"><title>test.c&#45;&gt;memstream.h</title>
<path fill="none" stroke="black" d="M1144.73,-3471.64C1159.03,-3389.5 1217.71,-3052.51 1235.11,-2952.58"/>
<polygon fill="black" stroke="black" points="1238.58,-2953.08 1236.84,-2942.63 1231.68,-2951.88 1238.58,-2953.08"/>
</g>
<!-- memstream.c -->
<g id="node14" class="node"><title>memstream.c</title>
<polygon fill="#bfff9e" stroke="black" points="920.035,-3204.66 828.035,-3204.66 828.035,-3168.66 920.035,-3168.66 920.035,-3204.66"/>
<text text-anchor="middle" x="874.035" y="-3182.96" font-family="Times,serif" font-size="14.00">memstream.c</text>
</g>
<!-- memstream.c&#45;&gt;memstream.h -->
<g id="edge53" class="edge"><title>memstream.c&#45;&gt;memstream.h</title>
<path fill="none" stroke="black" d="M899.189,-3168.65C964.053,-3122.18 1136.9,-2998.37 1208.38,-2947.17"/>
<polygon fill="black" stroke="black" points="1210.49,-2949.97 1216.58,-2941.3 1206.41,-2944.28 1210.49,-2949.97"/>
</g>
<!-- uwmf.h -->
<g id="node15" class="node"><title>uwmf.h</title>
<ellipse fill="#a5fffa" stroke="black" cx="2669.11" cy="-2924.53" rx="38.1938" ry="18"/>
<text text-anchor="middle" x="2669.11" y="-2920.83" font-family="Times,serif" font-size="14.00">uwmf.h</text>
</g>
<!-- uwmf.h&#45;&gt;uemf.h -->
<g id="edge10" class="edge"><title>uwmf.h&#45;&gt;uemf.h</title>
<path fill="none" stroke="black" d="M2662.91,-2906.53C2636.81,-2830.83 2535.8,-2537.89 2504.27,-2446.45"/>
<polygon fill="black" stroke="black" points="2507.51,-2445.11 2500.94,-2436.8 2500.89,-2447.39 2507.51,-2445.11"/>
</g>
<!-- uwmf.h&#45;&gt;uemf_utf.h -->
<g id="edge16" class="edge"><title>uwmf.h&#45;&gt;uemf_utf.h</title>
<path fill="none" stroke="black" d="M2676.12,-2906.5C2725.63,-2779.23 3022.3,-2016.51 3082.69,-1861.27"/>
<polygon fill="black" stroke="black" points="3086.11,-1862.13 3086.47,-1851.54 3079.58,-1859.6 3086.11,-1862.13"/>
</g>
<!-- uwmf_endian.h -->
<g id="node17" class="node"><title>uwmf_endian.h</title>
<ellipse fill="#a5fffa" stroke="black" cx="3396.89" cy="-2368.49" rx="66.0889" ry="18"/>
<text text-anchor="middle" x="3396.89" y="-2364.79" font-family="Times,serif" font-size="14.00">uwmf_endian.h</text>
</g>
<!-- uwmf.h&#45;&gt;uwmf_endian.h -->
<g id="edge65" class="edge"><title>uwmf.h&#45;&gt;uwmf_endian.h</title>
<path fill="none" stroke="black" d="M2689.34,-2909.07C2790.78,-2831.57 3244.17,-2485.16 3366.43,-2391.76"/>
<polygon fill="black" stroke="black" points="3368.83,-2394.33 3374.65,-2385.48 3364.58,-2388.77 3368.83,-2394.33"/>
</g>
<!-- uwmf.c -->
<g id="node16" class="node"><title>uwmf.c</title>
<polygon fill="#bfff9e" stroke="black" points="3064.57,-3204.66 3005.57,-3204.66 3005.57,-3168.66 3064.57,-3168.66 3064.57,-3204.66"/>
<text text-anchor="middle" x="3035.07" y="-3182.96" font-family="Times,serif" font-size="14.00">uwmf.c</text>
</g>
<!-- uwmf.c&#45;&gt;uwmf.h -->
<g id="edge63" class="edge"><title>uwmf.c&#45;&gt;uwmf.h</title>
<path fill="none" stroke="black" d="M3009.92,-3168.65C2944.41,-3121.72 2768.78,-2995.91 2698.64,-2945.67"/>
<polygon fill="black" stroke="black" points="2700.4,-2942.63 2690.23,-2939.65 2696.33,-2948.32 2700.4,-2942.63"/>
</g>
<!-- uwmf.c&#45;&gt;uwmf_endian.h -->
<g id="edge25" class="edge"><title>uwmf.c&#45;&gt;uwmf_endian.h</title>
<path fill="none" stroke="black" d="M3043.14,-3168.43C3090.09,-3062.25 3328.09,-2524.07 3384.76,-2395.91"/>
<polygon fill="black" stroke="black" points="3388.12,-2396.97 3388.96,-2386.41 3381.72,-2394.14 3388.12,-2396.97"/>
</g>
<!-- uwmf_endian.h&#45;&gt;uemf_endian.h -->
<g id="edge30" class="edge"><title>uwmf_endian.h&#45;&gt;uemf_endian.h</title>
<path fill="none" stroke="black" d="M3364.89,-2352.58C3299.32,-2319.98 3149.79,-2245.63 3077.26,-2209.57"/>
<polygon fill="black" stroke="black" points="3078.49,-2206.27 3067.97,-2204.95 3075.37,-2212.54 3078.49,-2206.27"/>
</g>
<!-- uwmf_endian.c -->
<g id="node18" class="node"><title>uwmf_endian.c</title>
<polygon fill="#bfff9e" stroke="black" points="2818.04,-3507.81 2717.04,-3507.81 2717.04,-3471.81 2818.04,-3471.81 2818.04,-3507.81"/>
<text text-anchor="middle" x="2767.54" y="-3486.11" font-family="Times,serif" font-size="14.00">uwmf_endian.c</text>
</g>
<!-- uwmf_endian.c&#45;&gt;uwmf.h -->
<g id="edge23" class="edge"><title>uwmf_endian.c&#45;&gt;uwmf.h</title>
<path fill="none" stroke="black" d="M2764.38,-3471.64C2750.08,-3389.5 2691.4,-3052.51 2674,-2952.58"/>
<polygon fill="black" stroke="black" points="2677.43,-2951.88 2672.27,-2942.63 2670.53,-2953.08 2677.43,-2951.88"/>
</g>
<!-- uwmf_endian.c&#45;&gt;uwmf_endian.h -->
<g id="edge57" class="edge"><title>uwmf_endian.c&#45;&gt;uwmf_endian.h</title>
<path fill="none" stroke="black" d="M2777.69,-3471.74C2850.55,-3341.92 3293.91,-2551.97 3381.77,-2395.43"/>
<polygon fill="black" stroke="black" points="3384.97,-2396.88 3386.81,-2386.44 3378.86,-2393.45 3384.97,-2396.88"/>
</g>
<!-- uemf_endian.c -->
<g id="node19" class="node"><title>uemf_endian.c</title>
<polygon fill="#bfff9e" stroke="black" points="2382.08,-3206.41 2284.08,-3206.41 2284.08,-3170.41 2382.08,-3170.41 2382.08,-3206.41"/>
<text text-anchor="middle" x="2333.08" y="-3184.71" font-family="Times,serif" font-size="14.00">uemf_endian.c</text>
</g>
<!-- uemf_endian.c&#45;&gt;uemf.h -->
<g id="edge67" class="edge"><title>uemf_endian.c&#45;&gt;uemf.h</title>
<path fill="none" stroke="black" d="M2336.91,-3170.15C2358.32,-3068.33 2462.91,-2570.78 2488.94,-2446.96"/>
<polygon fill="black" stroke="black" points="2492.38,-2447.62 2491.01,-2437.11 2485.53,-2446.18 2492.38,-2447.62"/>
</g>
<!-- uemf_endian.c&#45;&gt;uemf_endian.h -->
<g id="edge2" class="edge"><title>uemf_endian.c&#45;&gt;uemf_endian.h</title>
<path fill="none" stroke="black" d="M2345.88,-3170.22C2431.21,-3048.97 2917.19,-2358.46 3018,-2215.22"/>
<polygon fill="black" stroke="black" points="3020.92,-2217.15 3023.81,-2206.96 3015.2,-2213.12 3020.92,-2217.15"/>
</g>
<!-- uemf.c -->
<g id="node20" class="node"><title>uemf.c</title>
<polygon fill="#bfff9e" stroke="black" points="2110.37,-3287.56 2055.37,-3287.56 2055.37,-3251.56 2110.37,-3251.56 2110.37,-3287.56"/>
<text text-anchor="middle" x="2082.87" y="-3265.86" font-family="Times,serif" font-size="14.00">uemf.c</text>
</g>
<!-- uemf.c&#45;&gt;uemf.h -->
<g id="edge28" class="edge"><title>uemf.c&#45;&gt;uemf.h</title>
<path fill="none" stroke="black" d="M2091.67,-3251.4C2144.4,-3142.53 2418.48,-2576.63 2481.77,-2445.96"/>
<polygon fill="black" stroke="black" points="2485.07,-2447.18 2486.28,-2436.65 2478.77,-2444.12 2485.07,-2447.18"/>
</g>
<!-- upmf.c -->
<g id="node21" class="node"><title>upmf.c</title>
<polygon fill="#bfff9e" stroke="black" points="1730.21,-2694.07 1674.21,-2694.07 1674.21,-2658.07 1730.21,-2658.07 1730.21,-2694.07"/>
<text text-anchor="middle" x="1702.21" y="-2672.37" font-family="Times,serif" font-size="14.00">upmf.c</text>
</g>
<!-- upmf.c&#45;&gt;upmf.h -->
<g id="edge18" class="edge"><title>upmf.c&#45;&gt;upmf.h</title>
<path fill="none" stroke="black" d="M1716.85,-2657.91C1783.75,-2574.93 2060.4,-2231.79 2137.67,-2135.95"/>
<polygon fill="black" stroke="black" points="2140.56,-2137.94 2144.11,-2127.96 2135.11,-2133.55 2140.56,-2137.94"/>
</g>
<!-- upmf.c&#45;&gt;uemf_endian.h -->
<g id="edge36" class="edge"><title>upmf.c&#45;&gt;uemf_endian.h</title>
<path fill="none" stroke="black" d="M1730.38,-2665.79C1898.64,-2604.38 2770.85,-2286.08 2987.54,-2207.01"/>
<polygon fill="black" stroke="black" points="2988.86,-2210.25 2997.06,-2203.53 2986.46,-2203.67 2988.86,-2210.25"/>
</g>
<!-- uemf_utf.c -->
<g id="node22" class="node"><title>uemf_utf.c</title>
<polygon fill="#bfff9e" stroke="black" points="3511.53,-1912.48 3434.53,-1912.48 3434.53,-1876.48 3511.53,-1876.48 3511.53,-1912.48"/>
<text text-anchor="middle" x="3473.03" y="-1890.78" font-family="Times,serif" font-size="14.00">uemf_utf.c</text>
</g>
<!-- uemf_utf.c&#45;&gt;uemf_utf.h -->
<g id="edge54" class="edge"><title>uemf_utf.c&#45;&gt;uemf_utf.h</title>
<path fill="none" stroke="black" d="M3434.19,-1888.26C3366.64,-1877.44 3227.31,-1855.14 3149.35,-1842.66"/>
<polygon fill="black" stroke="black" points="3149.66,-1839.16 3139.24,-1841.04 3148.56,-1846.07 3149.66,-1839.16"/>
</g>
<!-- emf2svg_rec_path.c -->
<g id="node23" class="node"><title>emf2svg_rec_path.c</title>
<polygon fill="#bfff9e" stroke="black" points="1047.65,-2535.75 920.654,-2535.75 920.654,-2499.75 1047.65,-2499.75 1047.65,-2535.75"/>
<text text-anchor="middle" x="984.154" y="-2514.05" font-family="Times,serif" font-size="14.00">emf2svg_rec_path.c</text>
</g>
<!-- emf2svg_rec_path.c&#45;&gt;emf2svg_private.h -->
<g id="edge33" class="edge"><title>emf2svg_rec_path.c&#45;&gt;emf2svg_private.h</title>
<path fill="none" stroke="black" d="M988.538,-2499.61C1026.79,-2341.37 1303.58,-1196.33 1350.46,-1002.38"/>
<polygon fill="black" stroke="black" points="1353.87,-1003.2 1352.82,-992.653 1347.06,-1001.55 1353.87,-1003.2"/>
</g>
<!-- emf2svg_rec_path.c&#45;&gt;emf2svg_print.h -->
<g id="edge46" class="edge"><title>emf2svg_rec_path.c&#45;&gt;emf2svg_print.h</title>
<path fill="none" stroke="black" d="M1004.6,-2499.49C1176.46,-2346.06 2378.37,-1273 2574.46,-1097.92"/>
<polygon fill="black" stroke="black" points="2576.91,-1100.43 2582.03,-1091.16 2572.24,-1095.21 2576.91,-1100.43"/>
</g>
<!-- emf2svg_print.c -->
<g id="node24" class="node"><title>emf2svg_print.c</title>
<polygon fill="#bfff9e" stroke="black" points="925.804,-2207.21 819.804,-2207.21 819.804,-2171.21 925.804,-2171.21 925.804,-2207.21"/>
<text text-anchor="middle" x="872.804" y="-2185.51" font-family="Times,serif" font-size="14.00">emf2svg_print.c</text>
</g>
<!-- emf2svg_print.c&#45;&gt;emf2svg_private.h -->
<g id="edge58" class="edge"><title>emf2svg_print.c&#45;&gt;emf2svg_private.h</title>
<path fill="none" stroke="black" d="M880.027,-2171.09C934.465,-2034.58 1280,-1168.11 1346.23,-1002.02"/>
<polygon fill="black" stroke="black" points="1349.48,-1003.31 1349.94,-992.725 1342.98,-1000.72 1349.48,-1003.31"/>
</g>
<!-- emf2svg_print.c&#45;&gt;emf2svg_print.h -->
<g id="edge34" class="edge"><title>emf2svg_print.c&#45;&gt;emf2svg_print.h</title>
<path fill="none" stroke="black" d="M901.011,-2171.01C1104.18,-2039.92 2342.49,-1240.91 2566.7,-1096.24"/>
<polygon fill="black" stroke="black" points="2568.93,-1098.97 2575.43,-1090.61 2565.13,-1093.09 2568.93,-1098.97"/>
</g>
<!-- emf2svg.c -->
<g id="node25" class="node"><title>emf2svg.c</title>
<polygon fill="#bfff9e" stroke="black" points="845.49,-1669.38 771.49,-1669.38 771.49,-1633.38 845.49,-1633.38 845.49,-1669.38"/>
<text text-anchor="middle" x="808.49" y="-1647.68" font-family="Times,serif" font-size="14.00">emf2svg.c</text>
</g>
<!-- emf2svg.c&#45;&gt;emf2svg_private.h -->
<g id="edge27" class="edge"><title>emf2svg.c&#45;&gt;emf2svg_private.h</title>
<path fill="none" stroke="black" d="M823.167,-1633.27C899.076,-1539.63 1247.05,-1110.39 1336.3,-1000.3"/>
<polygon fill="black" stroke="black" points="1339.16,-1002.32 1342.73,-992.353 1333.72,-997.917 1339.16,-1002.32"/>
</g>
<!-- emf2svg.c&#45;&gt;emf2svg_print.h -->
<g id="edge21" class="edge"><title>emf2svg.c&#45;&gt;emf2svg_print.h</title>
<path fill="none" stroke="black" d="M845.528,-1639.44C1072.86,-1566.22 2278.41,-1177.87 2547.99,-1091.03"/>
<polygon fill="black" stroke="black" points="2549.1,-1094.35 2557.55,-1087.95 2546.96,-1087.68 2549.1,-1094.35"/>
</g>
<!-- emf2svg.c&#45;&gt;emf2svg.h -->
<g id="edge50" class="edge"><title>emf2svg.c&#45;&gt;emf2svg.h</title>
<path fill="none" stroke="black" d="M771.165,-1651.38C704.504,-1651.38 564.532,-1651.38 484.985,-1651.38"/>
<polygon fill="black" stroke="black" points="484.648,-1647.88 474.648,-1651.38 484.648,-1654.88 484.648,-1647.88"/>
</g>
<!-- emf2svg_clip_utils.c -->
<g id="node26" class="node"><title>emf2svg_clip_utils.c</title>
<polygon fill="#bfff9e" stroke="black" points="938.304,-1131.54 807.304,-1131.54 807.304,-1095.54 938.304,-1095.54 938.304,-1131.54"/>
<text text-anchor="middle" x="872.804" y="-1109.84" font-family="Times,serif" font-size="14.00">emf2svg_clip_utils.c</text>
</g>
<!-- emf2svg_clip_utils.c&#45;&gt;emf2svg_img_utils.h -->
<g id="edge55" class="edge"><title>emf2svg_clip_utils.c&#45;&gt;emf2svg_img_utils.h</title>
<path fill="none" stroke="black" d="M899.124,-1131.55C1118.65,-1281.77 2643.45,-2325.13 2891.02,-2494.53"/>
<polygon fill="black" stroke="black" points="2889.38,-2497.65 2899.61,-2500.41 2893.34,-2491.87 2889.38,-2497.65"/>
</g>
<!-- emf2svg_clip_utils.c&#45;&gt;emf2svg_private.h -->
<g id="edge37" class="edge"><title>emf2svg_clip_utils.c&#45;&gt;emf2svg_private.h</title>
<path fill="none" stroke="black" d="M935.634,-1095.51C1029.98,-1068.43 1206.95,-1017.63 1298.7,-991.298"/>
<polygon fill="black" stroke="black" points="1299.74,-994.642 1308.38,-988.519 1297.8,-987.914 1299.74,-994.642"/>
</g>
<!-- emf2svg_rec_control.c -->
<g id="node27" class="node"><title>emf2svg_rec_control.c</title>
<polygon fill="#bfff9e" stroke="black" points="1055.15,-803.004 913.154,-803.004 913.154,-767.004 1055.15,-767.004 1055.15,-803.004"/>
<text text-anchor="middle" x="984.154" y="-781.304" font-family="Times,serif" font-size="14.00">emf2svg_rec_control.c</text>
</g>
<!-- emf2svg_rec_control.c&#45;&gt;emf2svg_private.h -->
<g id="edge20" class="edge"><title>emf2svg_rec_control.c&#45;&gt;emf2svg_private.h</title>
<path fill="none" stroke="black" d="M1019.92,-803.174C1089.35,-838.443 1242.02,-915.994 1315.74,-953.446"/>
<polygon fill="black" stroke="black" points="1314.26,-956.616 1324.76,-958.025 1317.43,-950.375 1314.26,-956.616"/>
</g>
<!-- emf2svg_rec_control.c&#45;&gt;emf2svg_print.h -->
<g id="edge47" class="edge"><title>emf2svg_rec_control.c&#45;&gt;emf2svg_print.h</title>
<path fill="none" stroke="black" d="M1055.21,-797.692C1323.39,-845.577 2272.08,-1014.97 2534.04,-1061.75"/>
<polygon fill="black" stroke="black" points="2533.71,-1065.25 2544.17,-1063.56 2534.94,-1058.36 2533.71,-1065.25"/>
</g>
<!-- emf2svg_rec_comment.c -->
<g id="node28" class="node"><title>emf2svg_rec_comment.c</title>
<polygon fill="#bfff9e" stroke="black" points="1761.92,-1285.55 1606.92,-1285.55 1606.92,-1249.55 1761.92,-1249.55 1761.92,-1285.55"/>
<text text-anchor="middle" x="1684.42" y="-1263.85" font-family="Times,serif" font-size="14.00">emf2svg_rec_comment.c</text>
</g>
<!-- emf2svg_rec_comment.c&#45;&gt;pmf2svg.h -->
<g id="edge31" class="edge"><title>emf2svg_rec_comment.c&#45;&gt;pmf2svg.h</title>
<path fill="none" stroke="black" d="M1697.27,-1285.81C1741.11,-1348.1 1884.93,-1552.45 1936.2,-1625.29"/>
<polygon fill="black" stroke="black" points="1933.63,-1627.73 1942.25,-1633.9 1939.36,-1623.7 1933.63,-1627.73"/>
</g>
<!-- emf2svg_rec_comment.c&#45;&gt;emf2svg_private.h -->
<g id="edge19" class="edge"><title>emf2svg_rec_comment.c&#45;&gt;emf2svg_private.h</title>
<path fill="none" stroke="black" d="M1663.96,-1249.22C1607.33,-1198.51 1448.58,-1056.34 1384.52,-998.968"/>
<polygon fill="black" stroke="black" points="1386.62,-996.15 1376.83,-992.086 1381.95,-1001.36 1386.62,-996.15"/>
</g>
<!-- emf2svg_rec_comment.c&#45;&gt;emf2svg_print.h -->
<g id="edge60" class="edge"><title>emf2svg_rec_comment.c&#45;&gt;emf2svg_print.h</title>
<path fill="none" stroke="black" d="M1762.22,-1251.12C1940.14,-1213.53 2373.97,-1121.86 2537.61,-1087.29"/>
<polygon fill="black" stroke="black" points="2538.47,-1090.69 2547.53,-1085.2 2537.02,-1083.84 2538.47,-1090.69"/>
</g>
<!-- emf2svg_rec_comment.c&#45;&gt;pmf2svg_print.h -->
<g id="edge29" class="edge"><title>emf2svg_rec_comment.c&#45;&gt;pmf2svg_print.h</title>
<path fill="none" stroke="black" d="M1686.72,-1285.78C1706.09,-1439.21 1841.74,-2514.1 1865.47,-2702.13"/>
<polygon fill="black" stroke="black" points="1862,-2702.58 1866.72,-2712.06 1868.94,-2701.7 1862,-2702.58"/>
</g>
<!-- emf2svg_rec_drawing.c -->
<g id="node29" class="node"><title>emf2svg_rec_drawing.c</title>
<polygon fill="#bfff9e" stroke="black" points="1218.16,-517.909 1070.16,-517.909 1070.16,-481.909 1218.16,-481.909 1218.16,-517.909"/>
<text text-anchor="middle" x="1144.16" y="-496.209" font-family="Times,serif" font-size="14.00">emf2svg_rec_drawing.c</text>
</g>
<!-- emf2svg_rec_drawing.c&#45;&gt;emf2svg_private.h -->
<g id="edge5" class="edge"><title>emf2svg_rec_drawing.c&#45;&gt;emf2svg_private.h</title>
<path fill="none" stroke="black" d="M1152.26,-517.934C1184.75,-590.321 1305.87,-860.16 1344.96,-947.232"/>
<polygon fill="black" stroke="black" points="1341.81,-948.774 1349.1,-956.463 1348.2,-945.907 1341.81,-948.774"/>
</g>
<!-- emf2svg_rec_drawing.c&#45;&gt;emf2svg_print.h -->
<g id="edge1" class="edge"><title>emf2svg_rec_drawing.c&#45;&gt;emf2svg_print.h</title>
<path fill="none" stroke="black" d="M1190.19,-518.032C1407.82,-603.733 2332.34,-967.807 2553.72,-1054.98"/>
<polygon fill="black" stroke="black" points="2552.53,-1058.28 2563.12,-1058.68 2555.1,-1051.76 2552.53,-1058.28"/>
</g>
<!-- emf2svg_rec_object_creation.c -->
<g id="node30" class="node"><title>emf2svg_rec_object_creation.c</title>
<polygon fill="#bfff9e" stroke="black" points="1438.31,-290.553 1251.31,-290.553 1251.31,-254.553 1438.31,-254.553 1438.31,-290.553"/>
<text text-anchor="middle" x="1344.81" y="-268.853" font-family="Times,serif" font-size="14.00">emf2svg_rec_object_creation.c</text>
</g>
<!-- emf2svg_rec_object_creation.c&#45;&gt;emf2svg_private.h -->
<g id="edge52" class="edge"><title>emf2svg_rec_object_creation.c&#45;&gt;emf2svg_private.h</title>
<path fill="none" stroke="black" d="M1345.13,-290.61C1346.81,-385.719 1354.63,-828.625 1356.7,-945.933"/>
<polygon fill="black" stroke="black" points="1353.2,-946.31 1356.88,-956.247 1360.2,-946.186 1353.2,-946.31"/>
</g>
<!-- emf2svg_rec_object_creation.c&#45;&gt;emf2svg_print.h -->
<g id="edge17" class="edge"><title>emf2svg_rec_object_creation.c&#45;&gt;emf2svg_print.h</title>
<path fill="none" stroke="black" d="M1373.12,-290.602C1539.01,-396.37 2383.95,-935.095 2566.63,-1051.57"/>
<polygon fill="black" stroke="black" points="2565,-1054.68 2575.31,-1057.1 2568.76,-1048.78 2565,-1054.68"/>
</g>
<!-- emf2svg_rec_transform.c -->
<g id="node31" class="node"><title>emf2svg_rec_transform.c</title>
<polygon fill="#bfff9e" stroke="black" points="1654.53,-132.337 1497.53,-132.337 1497.53,-96.3369 1654.53,-96.3369 1654.53,-132.337"/>
<text text-anchor="middle" x="1576.03" y="-110.637" font-family="Times,serif" font-size="14.00">emf2svg_rec_transform.c</text>
</g>
<!-- emf2svg_rec_transform.c&#45;&gt;emf2svg_private.h -->
<g id="edge48" class="edge"><title>emf2svg_rec_transform.c&#45;&gt;emf2svg_private.h</title>
<path fill="none" stroke="black" d="M1571.36,-132.701C1543.41,-242.577 1398.36,-812.739 1364.34,-946.431"/>
<polygon fill="black" stroke="black" points="1360.9,-945.76 1361.83,-956.315 1367.69,-947.486 1360.9,-945.76"/>
</g>
<!-- emf2svg_rec_transform.c&#45;&gt;emf2svg_print.h -->
<g id="edge35" class="edge"><title>emf2svg_rec_transform.c&#45;&gt;emf2svg_print.h</title>
<path fill="none" stroke="black" d="M1595.6,-132.647C1722.51,-251.388 2428.28,-911.734 2574.83,-1048.86"/>
<polygon fill="black" stroke="black" points="2572.85,-1051.79 2582.54,-1056.07 2577.63,-1046.68 2572.85,-1051.79"/>
</g>
<!-- emf2svg_img_utils.c -->
<g id="node32" class="node"><title>emf2svg_img_utils.c</title>
<polygon fill="#bfff9e" stroke="black" points="3314.42,-2824.54 3182.42,-2824.54 3182.42,-2788.54 3314.42,-2788.54 3314.42,-2824.54"/>
<text text-anchor="middle" x="3248.42" y="-2802.84" font-family="Times,serif" font-size="14.00">emf2svg_img_utils.c</text>
</g>
<!-- emf2svg_img_utils.c&#45;&gt;emf2svg_img_utils.h -->
<g id="edge64" class="edge"><title>emf2svg_img_utils.c&#45;&gt;emf2svg_img_utils.h</title>
<path fill="none" stroke="black" d="M3228.19,-2788.47C3172.35,-2738.62 3016.02,-2599.05 2952.41,-2542.26"/>
<polygon fill="black" stroke="black" points="2954.56,-2539.49 2944.77,-2535.44 2949.9,-2544.71 2954.56,-2539.49"/>
</g>
<!-- pmf2svg_print.c -->
<g id="node33" class="node"><title>pmf2svg_print.c</title>
<polygon fill="#bfff9e" stroke="black" points="2368.64,-1490.1 2261.64,-1490.1 2261.64,-1454.1 2368.64,-1454.1 2368.64,-1490.1"/>
<text text-anchor="middle" x="2315.14" y="-1468.4" font-family="Times,serif" font-size="14.00">pmf2svg_print.c</text>
</g>
<!-- pmf2svg_print.c&#45;&gt;pmf2svg.h -->
<g id="edge3" class="edge"><title>pmf2svg_print.c&#45;&gt;pmf2svg.h</title>
<path fill="none" stroke="black" d="M2278.91,-1490.11C2210.55,-1524.1 2063.09,-1597.41 1993.03,-1632.25"/>
<polygon fill="black" stroke="black" points="1991.47,-1629.11 1984.07,-1636.7 1994.58,-1635.38 1991.47,-1629.11"/>
</g>
<!-- pmf2svg_print.c&#45;&gt;emf2svg_private.h -->
<g id="edge39" class="edge"><title>pmf2svg_print.c&#45;&gt;emf2svg_private.h</title>
<path fill="none" stroke="black" d="M2280.48,-1454.09C2132.81,-1377.39 1556.5,-1078.03 1397.84,-995.614"/>
<polygon fill="black" stroke="black" points="1399.35,-992.454 1388.86,-990.95 1396.12,-998.666 1399.35,-992.454"/>
</g>
<!-- pmf2svg_print.c&#45;&gt;emf2svg_print.h -->
<g id="edge40" class="edge"><title>pmf2svg_print.c&#45;&gt;emf2svg_print.h</title>
<path fill="none" stroke="black" d="M2328.19,-1453.95C2374.13,-1390.04 2528.56,-1175.24 2582.61,-1100.05"/>
<polygon fill="black" stroke="black" points="2585.69,-1101.76 2588.69,-1091.59 2580.01,-1097.67 2585.69,-1101.76"/>
</g>
<!-- pmf2svg_print.c&#45;&gt;pmf2svg_print.h -->
<g id="edge22" class="edge"><title>pmf2svg_print.c&#45;&gt;pmf2svg_print.h</title>
<path fill="none" stroke="black" d="M2308.66,-1490.37C2258.99,-1630.43 1938.91,-2533.06 1878.75,-2702.7"/>
<polygon fill="black" stroke="black" points="1875.43,-2701.57 1875.39,-2712.17 1882.03,-2703.91 1875.43,-2701.57"/>
</g>
<!-- emf2svg_rec_object_manipulation.c -->
<g id="node34" class="node"><title>emf2svg_rec_object_manipulation.c</title>
<polygon fill="#bfff9e" stroke="black" points="1933.74,-51.1946 1718.74,-51.1946 1718.74,-15.1946 1933.74,-15.1946 1933.74,-51.1946"/>
<text text-anchor="middle" x="1826.24" y="-29.4946" font-family="Times,serif" font-size="14.00">emf2svg_rec_object_manipulation.c</text>
</g>
<!-- emf2svg_rec_object_manipulation.c&#45;&gt;emf2svg_private.h -->
<g id="edge8" class="edge"><title>emf2svg_rec_object_manipulation.c&#45;&gt;emf2svg_private.h</title>
<path fill="none" stroke="black" d="M1817.08,-51.5756C1758.88,-168.372 1440.83,-806.669 1370.83,-947.152"/>
<polygon fill="black" stroke="black" points="1367.56,-945.881 1366.23,-956.392 1373.82,-949.002 1367.56,-945.881"/>
</g>
<!-- emf2svg_rec_object_manipulation.c&#45;&gt;emf2svg_print.h -->
<g id="edge9" class="edge"><title>emf2svg_rec_object_manipulation.c&#45;&gt;emf2svg_print.h</title>
<path fill="none" stroke="black" d="M1839.69,-51.2561C1932.15,-175.36 2473.02,-901.35 2582.26,-1047.98"/>
<polygon fill="black" stroke="black" points="2579.48,-1050.12 2588.27,-1056.05 2585.1,-1045.94 2579.48,-1050.12"/>
</g>
<!-- emf2svg_utils.c -->
<g id="node35" class="node"><title>emf2svg_utils.c</title>
<polygon fill="#bfff9e" stroke="black" points="2134.87,-51.1946 2030.87,-51.1946 2030.87,-15.1946 2134.87,-15.1946 2134.87,-51.1946"/>
<text text-anchor="middle" x="2082.87" y="-29.4946" font-family="Times,serif" font-size="14.00">emf2svg_utils.c</text>
</g>
<!-- emf2svg_utils.c&#45;&gt;emf2svg_private.h -->
<g id="edge51" class="edge"><title>emf2svg_utils.c&#45;&gt;emf2svg_private.h</title>
<path fill="none" stroke="black" d="M2068.7,-51.5756C1978.3,-168.848 1482.57,-811.881 1376.98,-948.845"/>
<polygon fill="black" stroke="black" points="1374.21,-946.716 1370.87,-956.772 1379.75,-950.99 1374.21,-946.716"/>
</g>
<!-- emf2svg_utils.c&#45;&gt;emf2svg_print.h -->
<g id="edge62" class="edge"><title>emf2svg_utils.c&#45;&gt;emf2svg_print.h</title>
<path fill="none" stroke="black" d="M2091.87,-51.2561C2153.54,-174.98 2513.34,-896.919 2587.95,-1046.62"/>
<polygon fill="black" stroke="black" points="2584.85,-1048.25 2592.44,-1055.64 2591.11,-1045.13 2584.85,-1048.25"/>
</g>
<!-- emf2svg_rec_clipping.c -->
<g id="node36" class="node"><title>emf2svg_rec_clipping.c</title>
<polygon fill="#bfff9e" stroke="black" points="2407.08,-132.337 2259.08,-132.337 2259.08,-96.3369 2407.08,-96.3369 2407.08,-132.337"/>
<text text-anchor="middle" x="2333.08" y="-110.637" font-family="Times,serif" font-size="14.00">emf2svg_rec_clipping.c</text>
</g>
<!-- emf2svg_rec_clipping.c&#45;&gt;emf2svg_private.h -->
<g id="edge42" class="edge"><title>emf2svg_rec_clipping.c&#45;&gt;emf2svg_private.h</title>
<path fill="none" stroke="black" d="M2312.24,-132.701C2186.31,-243.697 1527.48,-824.416 1384.57,-950.384"/>
<polygon fill="black" stroke="black" points="1382.21,-947.797 1377.02,-957.035 1386.84,-953.048 1382.21,-947.797"/>
</g>
<!-- emf2svg_rec_clipping.c&#45;&gt;emf2svg_print.h -->
<g id="edge68" class="edge"><title>emf2svg_rec_clipping.c&#45;&gt;emf2svg_print.h</title>
<path fill="none" stroke="black" d="M2338.2,-132.647C2371.18,-250.553 2553.56,-902.47 2593.68,-1045.89"/>
<polygon fill="black" stroke="black" points="2590.36,-1046.99 2596.42,-1055.68 2597.1,-1045.11 2590.36,-1046.99"/>
</g>
<!-- pmf2svg.c -->
<g id="node37" class="node"><title>pmf2svg.c</title>
<polygon fill="#bfff9e" stroke="black" points="2371.17,-1608.6 2297.17,-1608.6 2297.17,-1572.6 2371.17,-1572.6 2371.17,-1608.6"/>
<text text-anchor="middle" x="2334.17" y="-1586.9" font-family="Times,serif" font-size="14.00">pmf2svg.c</text>
</g>
<!-- pmf2svg.c&#45;&gt;pmf2svg.h -->
<g id="edge15" class="edge"><title>pmf2svg.c&#45;&gt;pmf2svg.h</title>
<path fill="none" stroke="black" d="M2297.08,-1596.54C2229.95,-1607.29 2087.99,-1630.01 2009.54,-1642.57"/>
<polygon fill="black" stroke="black" points="2008.69,-1639.16 1999.37,-1644.2 2009.8,-1646.08 2008.69,-1639.16"/>
</g>
<!-- pmf2svg.c&#45;&gt;emf2svg_private.h -->
<g id="edge13" class="edge"><title>pmf2svg.c&#45;&gt;emf2svg_private.h</title>
<path fill="none" stroke="black" d="M2305.46,-1572.5C2164.7,-1483.73 1548.01,-1094.83 1392.77,-996.937"/>
<polygon fill="black" stroke="black" points="1394.38,-993.812 1384.05,-991.438 1390.64,-999.733 1394.38,-993.812"/>
</g>
<!-- emf2svg_rec_state_record.c -->
<g id="node38" class="node"><title>emf2svg_rec_state_record.c</title>
<polygon fill="#bfff9e" stroke="black" points="2649.3,-290.553 2479.3,-290.553 2479.3,-254.553 2649.3,-254.553 2649.3,-290.553"/>
<text text-anchor="middle" x="2564.3" y="-268.853" font-family="Times,serif" font-size="14.00">emf2svg_rec_state_record.c</text>
</g>
<!-- emf2svg_rec_state_record.c&#45;&gt;emf2svg_private.h -->
<g id="edge4" class="edge"><title>emf2svg_rec_state_record.c&#45;&gt;emf2svg_private.h</title>
<path fill="none" stroke="black" d="M2533.25,-290.61C2366.41,-387.631 1577.18,-846.582 1394.85,-952.611"/>
<polygon fill="black" stroke="black" points="1393.03,-949.623 1386.14,-957.676 1396.55,-955.674 1393.03,-949.623"/>
</g>
<!-- emf2svg_rec_state_record.c&#45;&gt;emf2svg_print.h -->
<g id="edge6" class="edge"><title>emf2svg_rec_state_record.c&#45;&gt;emf2svg_print.h</title>
<path fill="none" stroke="black" d="M2565.14,-290.793C2569.99,-395.25 2594.23,-917.369 2600.17,-1045.41"/>
<polygon fill="black" stroke="black" points="2596.68,-1045.76 2600.64,-1055.58 2603.67,-1045.43 2596.68,-1045.76"/>
</g>
<!-- emf2svg_rec_bitmap.c -->
<g id="node39" class="node"><title>emf2svg_rec_bitmap.c</title>
<polygon fill="#bfff9e" stroke="black" points="2835.94,-517.909 2693.94,-517.909 2693.94,-481.909 2835.94,-481.909 2835.94,-517.909"/>
<text text-anchor="middle" x="2764.94" y="-496.209" font-family="Times,serif" font-size="14.00">emf2svg_rec_bitmap.c</text>
</g>
<!-- emf2svg_rec_bitmap.c&#45;&gt;emf2svg_img_utils.h -->
<g id="edge32" class="edge"><title>emf2svg_rec_bitmap.c&#45;&gt;emf2svg_img_utils.h</title>
<path fill="none" stroke="black" d="M2766.38,-517.969C2781.08,-703.425 2904.47,-2259.37 2922.71,-2489.38"/>
<polygon fill="black" stroke="black" points="2919.24,-2489.91 2923.52,-2499.6 2926.21,-2489.36 2919.24,-2489.91"/>
</g>
<!-- emf2svg_rec_bitmap.c&#45;&gt;emf2svg_private.h -->
<g id="edge49" class="edge"><title>emf2svg_rec_bitmap.c&#45;&gt;emf2svg_private.h</title>
<path fill="none" stroke="black" d="M2711.48,-517.934C2488.54,-593.094 1634.19,-881.123 1410.87,-956.413"/>
<polygon fill="black" stroke="black" points="1409.69,-953.117 1401.33,-959.628 1411.93,-959.75 1409.69,-953.117"/>
</g>
<!-- emf2svg_rec_bitmap.c&#45;&gt;emf2svg_print.h -->
<g id="edge14" class="edge"><title>emf2svg_rec_bitmap.c&#45;&gt;emf2svg_print.h</title>
<path fill="none" stroke="black" d="M2759.78,-518.032C2736.14,-601.022 2638.16,-945.053 2609.43,-1045.9"/>
<polygon fill="black" stroke="black" points="2606.02,-1045.09 2606.65,-1055.67 2612.76,-1047.01 2606.02,-1045.09"/>
</g>
<!-- emf2svg.cpp -->
<g id="node40" class="node"><title>emf2svg.cpp</title>
<polygon fill="#f6c9bb" stroke="black" points="99.9581,-1365.5 12.9581,-1365.5 12.9581,-1329.5 99.9581,-1329.5 99.9581,-1365.5"/>
<text text-anchor="middle" x="56.4581" y="-1343.8" font-family="Times,serif" font-size="14.00">emf2svg.cpp</text>
</g>
<!-- emf2svg.cpp&#45;&gt;emf2svg.h -->
<g id="edge24" class="edge"><title>emf2svg.cpp&#45;&gt;emf2svg.h</title>
<path fill="none" stroke="black" d="M78.4959,-1365.6C142.333,-1418.03 327.338,-1569.96 398.302,-1628.24"/>
<polygon fill="black" stroke="black" points="396.425,-1631.23 406.375,-1634.87 400.868,-1625.82 396.425,-1631.23"/>
</g>
</g>
</svg>
